if (_typeface_js && _typeface_js.loadFace) _typeface_js.loadFace({"glyphs":{"S":{"x_min":63.65625,"x_max":684.859375,"ha":748,"o":"m 388 937 l 515 923 l 647 868 l 647 698 l 512 765 l 398 783 l 301 757 l 264 683 l 308 604 l 410 558 l 536 505 l 641 418 l 684 272 l 658 151 l 586 61 l 480 6 l 352 -11 l 212 8 l 63 76 l 63 252 l 158 193 l 254 156 l 349 142 l 454 173 l 499 260 l 440 355 l 327 406 l 199 461 l 111 545 l 79 674 l 103 790 l 168 871 l 267 921 l 388 937 "},"a":{"x_min":40.515625,"x_max":679.0625,"ha":768,"o":"m 679 652 l 679 521 l 679 391 l 679 260 l 679 130 l 679 0 l 522 0 l 522 36 l 364 -11 l 235 13 l 132 83 l 64 190 l 40 326 l 63 461 l 128 568 l 228 638 l 356 663 l 522 614 l 522 652 l 679 652 m 383 130 l 522 184 l 522 326 l 522 467 l 383 521 l 249 464 l 195 326 l 249 187 l 383 130 "},"T":{"x_min":27.96875,"x_max":782.28125,"ha":810,"o":"m 782 771 l 639 771 l 497 771 l 497 643 l 497 514 l 497 385 l 497 257 l 497 128 l 497 0 l 405 0 l 312 0 l 312 128 l 312 257 l 312 385 l 312 514 l 312 643 l 312 771 l 169 771 l 27 771 l 27 926 l 153 926 l 279 926 l 405 926 l 530 926 l 656 926 l 782 926 l 782 771 "},"N":{"x_min":92.59375,"x_max":964.578125,"ha":1057,"o":"m 964 0 l 865 0 l 766 0 l 695 93 l 625 186 l 553 279 l 483 373 l 411 466 l 341 559 l 270 653 l 270 522 l 270 391 l 270 261 l 270 130 l 270 0 l 92 0 l 92 115 l 92 231 l 92 347 l 92 463 l 92 578 l 92 694 l 92 810 l 92 926 l 191 926 l 291 926 l 361 832 l 433 739 l 503 646 l 574 552 l 645 459 l 716 366 l 787 272 l 787 403 l 787 534 l 787 664 l 787 795 l 787 926 l 964 926 l 964 810 l 964 694 l 964 578 l 964 463 l 964 347 l 964 231 l 964 115 l 964 0 "},"K":{"x_min":96.453125,"x_max":898.03125,"ha":915,"o":"m 281 0 l 189 0 l 96 0 l 96 115 l 96 231 l 96 347 l 96 463 l 96 578 l 96 694 l 96 810 l 96 926 l 189 926 l 281 926 l 281 810 l 281 694 l 281 578 l 281 463 l 281 347 l 281 231 l 281 115 l 281 0 m 505 497 l 583 398 l 662 299 l 740 198 l 819 99 l 898 0 l 780 0 l 663 0 l 589 98 l 515 196 l 441 295 l 367 393 l 293 491 l 373 599 l 453 708 l 533 817 l 613 926 l 726 926 l 840 926 l 756 818 l 672 711 l 589 604 l 505 497 "},"d":{"x_min":40.515625,"x_max":679.0625,"ha":768,"o":"m 679 926 l 679 810 l 679 694 l 679 578 l 679 463 l 679 347 l 679 231 l 679 115 l 679 0 l 522 0 l 522 38 l 356 -11 l 228 13 l 128 83 l 63 190 l 40 326 l 64 461 l 132 568 l 235 638 l 364 663 l 522 615 l 522 718 l 522 822 l 522 926 l 679 926 m 383 130 l 522 184 l 522 326 l 522 467 l 383 521 l 249 464 l 195 326 l 249 187 l 383 130 "},"Y":{"x_min":18.328125,"x_max":901.890625,"ha":921,"o":"m 552 442 l 552 331 l 552 220 l 552 110 l 552 0 l 460 0 l 367 0 l 367 110 l 367 220 l 367 331 l 367 442 l 298 539 l 227 635 l 158 733 l 87 829 l 18 926 l 134 926 l 249 926 l 321 820 l 392 714 l 463 609 l 535 714 l 606 820 l 678 926 l 790 926 l 901 926 l 832 829 l 762 733 l 692 635 l 622 539 l 552 442 "},"E":{"x_min":96.453125,"x_max":700.28125,"ha":757,"o":"m 700 771 l 560 771 l 421 771 l 281 771 l 281 657 l 281 544 l 402 544 l 521 544 l 642 544 l 642 395 l 521 395 l 402 395 l 281 395 l 281 274 l 281 154 l 421 154 l 560 154 l 700 154 l 700 0 l 579 0 l 459 0 l 337 0 l 217 0 l 96 0 l 96 115 l 96 231 l 96 347 l 96 463 l 96 578 l 96 694 l 96 810 l 96 926 l 217 926 l 337 926 l 459 926 l 579 926 l 700 926 l 700 771 "},"j":{"x_min":-50.15625,"x_max":278.765625,"ha":363,"o":"m 181 906 l 278 810 l 181 713 l 84 810 l 181 906 m 259 578 l 259 449 l 259 320 l 259 190 l 259 61 l 259 -67 l 239 -190 l 178 -282 l 81 -339 l -50 -358 l -50 -213 l 57 -172 l 103 -55 l 103 71 l 103 197 l 103 325 l 103 451 l 103 578 l 259 578 "},"y":{"x_min":24.109375,"x_max":664.59375,"ha":690,"o":"m 424 0 l 375 -136 l 326 -273 l 166 -273 l 216 -136 l 265 0 l 224 109 l 185 217 l 144 326 l 104 435 l 64 543 l 24 652 l 190 652 l 228 540 l 267 428 l 305 317 l 344 205 l 382 317 l 421 428 l 461 540 l 499 652 l 664 652 l 624 543 l 584 435 l 544 326 l 504 217 l 463 109 l 424 0 "},"Z":{"x_min":46.296875,"x_max":800.609375,"ha":847,"o":"m 800 771 l 727 683 l 653 595 l 579 507 l 505 418 l 432 330 l 357 242 l 284 154 l 413 154 l 542 154 l 671 154 l 800 154 l 800 0 l 675 0 l 548 0 l 423 0 l 298 0 l 171 0 l 46 0 l 46 154 l 120 242 l 193 330 l 268 418 l 341 507 l 415 595 l 489 683 l 563 771 l 434 771 l 304 771 l 175 771 l 46 771 l 46 926 l 171 926 l 298 926 l 423 926 l 548 926 l 675 926 l 800 926 l 800 771 "},"u":{"x_min":88.734375,"x_max":689.671875,"ha":789,"o":"m 689 652 l 689 521 l 689 391 l 689 260 l 689 130 l 689 0 l 533 0 l 533 38 l 367 -11 l 247 9 l 160 69 l 107 162 l 88 279 l 88 404 l 88 527 l 88 652 l 245 652 l 245 532 l 245 413 l 245 294 l 287 182 l 398 136 l 533 188 l 533 303 l 533 419 l 533 536 l 533 652 l 689 652 "},"k":{"x_min":97.421875,"x_max":747.546875,"ha":763,"o":"m 355 264 l 252 158 l 252 0 l 97 0 l 97 115 l 97 231 l 97 347 l 97 463 l 97 578 l 97 694 l 97 810 l 97 926 l 252 926 l 252 810 l 252 695 l 252 579 l 252 464 l 252 349 l 274 372 l 271 378 l 280 378 l 368 469 l 456 560 l 544 652 l 639 652 l 735 652 l 645 560 l 555 467 l 465 376 l 536 281 l 606 188 l 677 93 l 747 0 l 650 0 l 553 0 l 488 87 l 421 176 l 355 264 "},"g":{"x_min":40.515625,"x_max":679.0625,"ha":768,"o":"m 679 652 l 679 525 l 679 399 l 679 272 l 679 146 l 679 20 l 654 -104 l 589 -198 l 490 -257 l 368 -278 l 248 -260 l 153 -209 l 153 -70 l 241 -128 l 350 -148 l 470 -101 l 522 20 l 522 75 l 356 25 l 228 47 l 128 111 l 63 212 l 40 344 l 64 476 l 132 577 l 235 641 l 364 663 l 522 615 l 522 652 l 679 652 m 383 155 l 522 205 l 522 344 l 522 483 l 383 534 l 249 480 l 195 344 l 249 209 l 383 155 "},"t":{"x_min":47.265625,"x_max":403.203125,"ha":442,"o":"m 249 438 l 249 291 l 294 174 l 403 134 l 403 -11 l 271 7 l 174 64 l 113 156 l 93 279 l 93 438 l 47 438 l 47 568 l 93 568 l 93 667 l 93 767 l 249 767 l 249 667 l 249 568 l 403 568 l 403 438 l 249 438 "},"e":{"x_min":40.515625,"x_max":728.265625,"ha":768,"o":"m 728 289 l 596 289 l 464 289 l 332 289 l 201 289 l 273 168 l 408 124 l 525 147 l 623 214 l 623 69 l 517 8 l 390 -11 l 248 13 l 137 83 l 66 190 l 40 326 l 66 461 l 139 568 l 248 638 l 383 663 l 493 647 l 588 599 l 662 522 l 710 418 l 728 289 m 200 394 l 320 394 l 439 394 l 559 394 l 491 511 l 383 552 l 265 509 l 200 394 "},"J":{"x_min":-1.921875,"x_max":556.5625,"ha":652,"o":"m 556 926 l 556 805 l 556 683 l 556 563 l 556 441 l 556 321 l 534 183 l 471 79 l 372 11 l 242 -11 l 108 9 l -1 69 l -1 170 l -1 272 l 97 198 l 198 171 l 319 212 l 371 339 l 371 457 l 371 573 l 371 691 l 371 808 l 371 926 l 463 926 l 556 926 "},"W":{"x_min":23.15625,"x_max":1365.84375,"ha":1389,"o":"m 1076 0 l 983 0 l 891 0 l 858 110 l 825 220 l 792 331 l 760 442 l 727 552 l 694 663 l 661 552 l 628 442 l 596 331 l 563 220 l 530 110 l 497 0 l 405 0 l 312 0 l 275 115 l 240 231 l 203 347 l 167 463 l 131 578 l 95 694 l 58 810 l 23 926 l 115 926 l 208 926 l 241 815 l 273 705 l 306 594 l 339 483 l 372 373 l 405 262 l 437 373 l 470 483 l 503 594 l 536 705 l 569 815 l 601 926 l 694 926 l 787 926 l 819 815 l 852 705 l 885 594 l 918 483 l 951 373 l 983 262 l 1016 373 l 1049 483 l 1082 594 l 1115 705 l 1147 815 l 1180 926 l 1273 926 l 1365 926 l 1329 810 l 1293 694 l 1256 578 l 1221 463 l 1184 347 l 1148 231 l 1112 115 l 1076 0 "},"v":{"x_min":24.109375,"x_max":664.59375,"ha":690,"o":"m 424 0 l 265 0 l 224 109 l 185 217 l 144 326 l 104 435 l 64 543 l 24 652 l 190 652 l 228 540 l 267 428 l 305 317 l 344 205 l 382 317 l 421 428 l 461 540 l 499 652 l 664 652 l 624 543 l 584 435 l 544 326 l 504 217 l 463 109 l 424 0 "},"s":{"x_min":63.65625,"x_max":594.1875,"ha":652,"o":"m 332 661 l 444 650 l 559 604 l 559 456 l 435 513 l 335 530 l 233 469 l 347 395 l 459 361 l 553 300 l 594 194 l 559 81 l 463 12 l 318 -11 l 193 4 l 63 58 l 64 212 l 193 147 l 325 124 l 438 195 l 308 279 l 193 316 l 109 377 l 78 471 l 109 577 l 197 640 l 332 661 "},"B":{"x_min":96.453125,"x_max":799.640625,"ha":842,"o":"m 96 926 l 211 926 l 326 926 l 440 926 l 563 907 l 657 857 l 719 780 l 741 682 l 710 572 l 628 493 l 752 404 l 799 263 l 776 158 l 709 74 l 609 19 l 479 0 l 352 0 l 223 0 l 96 0 l 96 115 l 96 231 l 96 347 l 96 463 l 96 578 l 96 694 l 96 810 l 96 926 m 281 784 l 281 667 l 281 550 l 434 550 l 521 584 l 556 666 l 521 749 l 434 784 l 281 784 m 281 414 l 281 277 l 281 141 l 376 141 l 471 141 l 572 182 l 614 278 l 572 375 l 471 414 l 376 414 l 281 414 "},"H":{"x_min":96.453125,"x_max":924.078125,"ha":1021,"o":"m 924 0 l 827 0 l 732 0 l 732 128 l 732 255 l 732 383 l 621 383 l 510 383 l 399 383 l 288 383 l 288 255 l 288 128 l 288 0 l 191 0 l 96 0 l 96 115 l 96 231 l 96 347 l 96 463 l 96 578 l 96 694 l 96 810 l 96 926 l 191 926 l 288 926 l 288 802 l 288 680 l 288 556 l 399 556 l 510 556 l 621 556 l 732 556 l 732 680 l 732 802 l 732 926 l 827 926 l 924 926 l 924 810 l 924 694 l 924 578 l 924 463 l 924 347 l 924 231 l 924 115 l 924 0 "},"c":{"x_min":44.375,"x_max":590.328125,"ha":637,"o":"m 376 663 l 494 643 l 590 582 l 590 425 l 502 491 l 394 516 l 257 462 l 199 326 l 257 190 l 394 136 l 502 160 l 590 226 l 590 69 l 494 8 l 376 -11 l 245 13 l 139 83 l 69 190 l 44 326 l 69 461 l 139 568 l 245 638 l 376 663 "},"q":{"x_min":40.515625,"x_max":679.0625,"ha":768,"o":"m 679 652 l 679 536 l 679 420 l 679 304 l 679 189 l 679 73 l 679 -42 l 679 -158 l 679 -273 l 522 -273 l 522 -170 l 522 -66 l 522 36 l 364 -11 l 235 13 l 132 83 l 64 190 l 40 326 l 63 461 l 128 568 l 228 638 l 356 663 l 522 614 l 522 652 l 679 652 m 383 130 l 522 184 l 522 326 l 522 467 l 383 521 l 249 464 l 195 326 l 249 187 l 383 130 "},"b":{"x_min":89.703125,"x_max":728.265625,"ha":768,"o":"m 404 663 l 533 638 l 636 568 l 704 461 l 728 326 l 705 190 l 639 83 l 539 13 l 410 -11 l 245 38 l 245 0 l 89 0 l 89 115 l 89 231 l 89 347 l 89 463 l 89 578 l 89 694 l 89 810 l 89 926 l 245 926 l 245 822 l 245 718 l 245 615 l 404 663 m 383 130 l 517 187 l 572 326 l 517 464 l 383 521 l 245 466 l 245 326 l 245 185 l 383 130 "},"D":{"x_min":96.453125,"x_max":963.625,"ha":992,"o":"m 96 926 l 222 926 l 348 926 l 474 926 l 604 910 l 721 865 l 819 794 l 897 702 l 946 590 l 963 463 l 946 335 l 897 223 l 819 131 l 721 60 l 604 15 l 474 0 l 348 0 l 222 0 l 96 0 l 96 115 l 96 231 l 96 347 l 96 463 l 96 578 l 96 694 l 96 810 l 96 926 m 281 759 l 281 640 l 281 521 l 281 404 l 281 285 l 281 166 l 378 166 l 474 166 l 586 189 l 678 249 l 739 343 l 762 463 l 739 582 l 678 676 l 586 736 l 474 759 l 378 759 l 281 759 "},"I":{"x_min":107.0625,"x_max":292.265625,"ha":400,"o":"m 292 0 l 199 0 l 107 0 l 107 115 l 107 231 l 107 347 l 107 463 l 107 578 l 107 694 l 107 810 l 107 926 l 199 926 l 292 926 l 292 810 l 292 694 l 292 578 l 292 463 l 292 347 l 292 231 l 292 115 l 292 0 "},"G":{"x_min":27.96875,"x_max":879.703125,"ha":947,"o":"m 539 937 l 652 926 l 771 892 l 879 831 l 879 735 l 879 641 l 783 707 l 670 749 l 550 764 l 419 742 l 317 680 l 250 584 l 227 462 l 251 336 l 317 237 l 417 171 l 544 148 l 638 164 l 724 210 l 724 375 l 622 375 l 520 375 l 520 512 l 640 512 l 760 512 l 879 512 l 879 377 l 879 243 l 879 108 l 770 42 l 650 1 l 525 -11 l 391 4 l 272 51 l 171 124 l 94 219 l 45 333 l 27 463 l 44 587 l 90 700 l 165 796 l 267 871 l 392 920 l 539 937 "},"z":{"x_min":54.015625,"x_max":599,"ha":652,"o":"m 599 510 l 512 417 l 426 326 l 339 233 l 253 141 l 368 141 l 484 141 l 599 141 l 599 0 l 463 0 l 326 0 l 190 0 l 54 0 l 54 141 l 139 233 l 226 326 l 312 417 l 399 510 l 284 510 l 168 510 l 54 510 l 54 652 l 190 652 l 326 652 l 463 652 l 599 652 l 599 510 "},"U":{"x_min":81.984375,"x_max":880.671875,"ha":963,"o":"m 880 926 l 880 790 l 880 654 l 880 518 l 880 383 l 860 251 l 803 141 l 716 58 l 606 6 l 481 -11 l 354 6 l 245 58 l 159 141 l 102 251 l 81 383 l 81 518 l 81 654 l 81 790 l 81 926 l 178 926 l 274 926 l 274 790 l 274 654 l 274 518 l 274 383 l 302 264 l 376 186 l 481 158 l 586 186 l 659 264 l 687 383 l 687 518 l 687 654 l 687 790 l 687 926 l 784 926 l 880 926 "},"w":{"x_min":24.109375,"x_max":1011.84375,"ha":1036,"o":"m 801 0 l 666 0 l 628 112 l 592 224 l 554 337 l 517 450 l 480 337 l 443 224 l 406 112 l 369 0 l 234 0 l 199 109 l 163 217 l 129 326 l 94 435 l 58 543 l 24 652 l 187 652 l 218 546 l 249 441 l 281 336 l 313 231 l 349 336 l 383 441 l 419 546 l 455 652 l 580 652 l 616 546 l 651 441 l 686 336 l 722 231 l 754 336 l 785 441 l 817 546 l 848 652 l 1011 652 l 977 543 l 941 435 l 906 326 l 871 217 l 836 109 l 801 0 "},"F":{"x_min":96.453125,"x_max":700.28125,"ha":710,"o":"m 700 771 l 560 771 l 421 771 l 281 771 l 281 651 l 281 531 l 402 531 l 521 531 l 642 531 l 642 382 l 521 382 l 402 382 l 281 382 l 281 255 l 281 127 l 281 0 l 189 0 l 96 0 l 96 115 l 96 231 l 96 347 l 96 463 l 96 578 l 96 694 l 96 810 l 96 926 l 217 926 l 337 926 l 459 926 l 579 926 l 700 926 l 700 771 "},"r":{"x_min":93.5625,"x_max":580.671875,"ha":579,"o":"m 409 663 l 507 646 l 580 595 l 580 432 l 495 489 l 388 509 l 249 460 l 249 345 l 249 229 l 249 114 l 249 0 l 93 0 l 93 130 l 93 260 l 93 391 l 93 521 l 93 652 l 249 652 l 249 611 l 409 663 "},"x":{"x_min":24.109375,"x_max":702.21875,"ha":726,"o":"m 362 224 l 294 111 l 225 0 l 124 0 l 24 0 l 103 110 l 183 221 l 262 332 l 186 438 l 109 545 l 33 652 l 134 652 l 235 652 l 299 546 l 362 441 l 426 546 l 490 652 l 591 652 l 692 652 l 616 545 l 540 438 l 463 332 l 543 221 l 623 110 l 702 0 l 600 0 l 500 0 l 431 111 l 362 224 "},"V":{"x_min":41.484375,"x_max":958.796875,"ha":999,"o":"m 599 0 l 499 0 l 400 0 l 354 115 l 310 231 l 265 347 l 220 463 l 175 578 l 131 694 l 85 810 l 41 926 l 142 926 l 245 926 l 287 811 l 329 696 l 372 581 l 414 467 l 457 353 l 499 238 l 542 353 l 584 467 l 626 581 l 670 696 l 712 811 l 755 926 l 856 926 l 958 926 l 913 810 l 869 694 l 823 578 l 779 463 l 734 347 l 689 231 l 644 115 l 599 0 "},"Q":{"x_min":27.96875,"x_max":1013.78125,"ha":1042,"o":"m 1013 463 l 998 342 l 954 233 l 886 140 l 950 70 l 1013 0 l 918 0 l 822 0 l 774 54 l 654 4 l 520 -11 l 389 4 l 272 51 l 171 124 l 95 219 l 45 333 l 27 463 l 45 592 l 95 706 l 171 801 l 272 874 l 389 921 l 520 937 l 652 921 l 769 874 l 870 801 l 946 706 l 996 592 l 1013 463 m 520 161 l 650 190 l 579 269 l 509 347 l 604 347 l 700 347 l 758 282 l 799 365 l 814 463 l 790 582 l 728 679 l 634 741 l 520 764 l 407 741 l 313 679 l 250 582 l 227 463 l 250 343 l 313 246 l 407 184 l 520 161 "},"h":{"x_min":93.5625,"x_max":693.53125,"ha":768,"o":"m 415 663 l 535 642 l 622 582 l 675 490 l 693 373 l 693 248 l 693 124 l 693 0 l 538 0 l 538 119 l 538 238 l 538 357 l 494 469 l 384 516 l 249 464 l 249 348 l 249 232 l 249 115 l 249 0 l 93 0 l 93 115 l 93 231 l 93 347 l 93 463 l 93 578 l 93 694 l 93 810 l 93 926 l 249 926 l 249 821 l 249 718 l 249 614 l 415 663 "},"M":{"x_min":96.453125,"x_max":1089.015625,"ha":1185,"o":"m 1089 0 l 996 0 l 903 0 l 903 132 l 903 263 l 903 395 l 903 526 l 903 658 l 837 562 l 771 465 l 705 370 l 639 273 l 541 273 l 474 369 l 408 465 l 341 561 l 274 657 l 274 526 l 274 394 l 274 263 l 274 131 l 274 0 l 96 0 l 96 115 l 96 231 l 96 347 l 96 463 l 96 578 l 96 694 l 96 810 l 96 926 l 200 926 l 304 926 l 377 822 l 448 720 l 520 617 l 593 515 l 664 617 l 735 720 l 806 822 l 877 926 l 982 926 l 1089 926 l 1089 810 l 1089 694 l 1089 578 l 1089 463 l 1089 347 l 1089 231 l 1089 115 l 1089 0 "},"C":{"x_min":27.96875,"x_max":843.046875,"ha":889,"o":"m 506 937 l 640 924 l 751 886 l 843 831 l 843 729 l 843 627 l 750 702 l 646 748 l 531 764 l 412 742 l 316 680 l 251 584 l 227 463 l 251 341 l 316 245 l 412 183 l 531 161 l 646 177 l 750 222 l 843 297 l 843 195 l 843 94 l 751 36 l 640 0 l 506 -11 l 379 4 l 264 51 l 167 124 l 92 219 l 45 333 l 27 463 l 45 592 l 92 706 l 167 801 l 264 874 l 379 921 l 506 937 "},"f":{"x_min":47.265625,"x_max":403.203125,"ha":442,"o":"m 403 937 l 403 791 l 294 750 l 249 634 l 249 568 l 403 568 l 403 438 l 249 438 l 249 328 l 249 218 l 249 109 l 249 0 l 93 0 l 93 109 l 93 218 l 93 328 l 93 438 l 47 438 l 47 568 l 93 568 l 93 646 l 113 769 l 174 861 l 271 918 l 403 937 "},"L":{"x_min":107.0625,"x_max":710.890625,"ha":731,"o":"m 292 172 l 432 172 l 571 172 l 710 172 l 710 0 l 590 0 l 469 0 l 348 0 l 227 0 l 107 0 l 107 115 l 107 231 l 107 347 l 107 463 l 107 578 l 107 694 l 107 810 l 107 926 l 199 926 l 292 926 l 292 800 l 292 675 l 292 548 l 292 423 l 292 298 l 292 172 "},"i":{"x_min":84.890625,"x_max":278.765625,"ha":363,"o":"m 181 906 l 278 810 l 181 713 l 84 810 l 181 906 m 259 0 l 103 0 l 103 115 l 103 231 l 103 347 l 103 463 l 103 578 l 259 578 l 259 463 l 259 347 l 259 231 l 259 115 l 259 0 "},"A":{"x_min":41.484375,"x_max":958.796875,"ha":999,"o":"m 314 237 l 270 118 l 226 0 l 134 0 l 41 0 l 85 115 l 131 231 l 175 347 l 220 463 l 265 578 l 310 694 l 354 810 l 400 926 l 499 926 l 599 926 l 644 810 l 689 694 l 734 578 l 779 463 l 823 347 l 869 231 l 913 115 l 958 0 l 866 0 l 773 0 l 729 118 l 684 237 l 561 237 l 437 237 l 314 237 m 499 763 l 456 639 l 411 516 l 368 391 l 499 391 l 630 391 l 587 516 l 543 639 l 499 763 "},"n":{"x_min":93.5625,"x_max":693.53125,"ha":768,"o":"m 415 663 l 535 642 l 622 582 l 675 490 l 693 373 l 693 248 l 693 124 l 693 0 l 538 0 l 538 119 l 538 238 l 538 357 l 494 469 l 384 516 l 249 464 l 249 348 l 249 232 l 249 115 l 249 0 l 93 0 l 93 130 l 93 260 l 93 391 l 93 521 l 93 652 l 249 652 l 249 614 l 415 663 "},"O":{"x_min":27.96875,"x_max":1013.78125,"ha":1042,"o":"m 520 937 l 652 921 l 769 874 l 869 801 l 946 706 l 996 592 l 1013 463 l 996 333 l 946 219 l 869 124 l 769 51 l 652 4 l 520 -11 l 389 4 l 272 51 l 172 124 l 95 219 l 45 333 l 27 463 l 45 592 l 95 706 l 172 801 l 272 874 l 389 921 l 520 937 m 520 764 l 407 741 l 313 679 l 250 582 l 227 463 l 250 343 l 313 246 l 407 184 l 520 161 l 634 184 l 728 246 l 790 343 l 814 463 l 790 582 l 728 679 l 634 741 l 520 764 "}," ":{"x_min":0,"x_max":0,"ha":395},"X":{"x_min":18.328125,"x_max":938.546875,"ha":958,"o":"m 592 486 l 661 388 l 731 291 l 799 194 l 869 97 l 938 0 l 822 0 l 707 0 l 629 116 l 553 232 l 476 349 l 398 232 l 321 116 l 243 0 l 130 0 l 18 0 l 87 96 l 157 191 l 225 288 l 295 383 l 364 480 l 285 591 l 205 703 l 126 814 l 47 926 l 163 926 l 278 926 l 346 822 l 414 720 l 482 617 l 549 720 l 618 822 l 685 926 l 797 926 l 909 926 l 830 816 l 750 706 l 671 596 l 592 486 "},"P":{"x_min":96.453125,"x_max":766.84375,"ha":805,"o":"m 96 926 l 215 926 l 332 926 l 451 926 l 573 901 l 674 837 l 741 740 l 766 622 l 741 503 l 674 407 l 573 342 l 451 318 l 281 318 l 281 212 l 281 106 l 281 0 l 189 0 l 96 0 l 96 115 l 96 231 l 96 347 l 96 463 l 96 578 l 96 694 l 96 810 l 96 926 m 281 771 l 281 622 l 281 472 l 429 472 l 535 516 l 578 622 l 535 727 l 429 771 l 281 771 "},"m":{"x_min":93.5625,"x_max":1156.53125,"ha":1231,"o":"m 878 663 l 998 642 l 1085 582 l 1138 490 l 1156 373 l 1156 248 l 1156 124 l 1156 0 l 1001 0 l 1001 119 l 1001 238 l 1001 357 l 957 469 l 847 516 l 696 449 l 703 373 l 703 248 l 703 124 l 703 0 l 547 0 l 547 119 l 547 238 l 547 357 l 504 469 l 393 516 l 249 456 l 249 342 l 249 227 l 249 113 l 249 0 l 93 0 l 93 130 l 93 260 l 93 391 l 93 521 l 93 652 l 249 652 l 249 607 l 332 649 l 424 663 l 553 638 l 643 568 l 749 637 l 878 663 "},"l":{"x_min":98.390625,"x_max":407.046875,"ha":442,"o":"m 253 926 l 253 798 l 253 672 l 253 544 l 253 418 l 253 291 l 298 174 l 407 134 l 407 -11 l 275 7 l 178 64 l 118 156 l 98 279 l 98 408 l 98 538 l 98 667 l 98 796 l 98 926 l 253 926 "},"p":{"x_min":89.703125,"x_max":728.265625,"ha":768,"o":"m 404 663 l 533 638 l 636 568 l 704 461 l 728 326 l 705 190 l 639 83 l 539 13 l 410 -11 l 245 38 l 245 -65 l 245 -169 l 245 -273 l 89 -273 l 89 -158 l 89 -42 l 89 73 l 89 189 l 89 304 l 89 420 l 89 536 l 89 652 l 245 652 l 245 615 l 404 663 m 383 130 l 517 187 l 572 326 l 517 464 l 383 521 l 245 466 l 245 326 l 245 185 l 383 130 "},"R":{"x_min":102.25,"x_max":829.546875,"ha":863,"o":"m 102 926 l 220 926 l 339 926 l 458 926 l 580 901 l 680 837 l 747 740 l 772 622 l 751 513 l 691 424 l 603 363 l 679 242 l 754 121 l 829 0 l 723 0 l 618 0 l 552 106 l 486 212 l 420 318 l 287 318 l 287 212 l 287 106 l 287 0 l 194 0 l 102 0 l 102 115 l 102 231 l 102 347 l 102 463 l 102 578 l 102 694 l 102 810 l 102 926 m 287 771 l 287 622 l 287 472 l 435 472 l 541 516 l 584 622 l 541 727 l 435 771 l 287 771 "},"o":{"x_min":40.515625,"x_max":728.265625,"ha":768,"o":"m 383 663 l 519 638 l 628 568 l 701 461 l 728 326 l 701 190 l 628 83 l 519 13 l 383 -11 l 248 13 l 139 83 l 66 190 l 40 326 l 66 461 l 139 568 l 248 638 l 383 663 m 383 521 l 250 464 l 195 326 l 250 187 l 383 130 l 517 187 l 572 326 l 517 464 l 383 521 "}}}
